<?xml version="1.0" encoding="UTF-8"?>
<svg id="Layer_1" data-name="Layer 1" xmlns="http://www.w3.org/2000/svg" viewBox="0 0 441 194">
  <defs>
    <style>
      .cls-1 {
        fill: #fff;
      }

      .cls-2 {
        fill: #26a74a;
      }
    </style>
  </defs>
  <path class="cls-2" d="M142.36,69.35c0,28.43-18.87,52.32-44.41,59.05l-11.67-20.42c17.76-1.71,31.7-18.35,31.7-38.64,0-21.43-15.55-38.79-34.72-38.79s-34.72,17.37-34.72,38.79,15.55,38.79,34.72,38.79v22.16c-32.64,0-59.11-27.29-59.11-60.95S50.61,8.4,83.26,8.4s59.1,27.29,59.1,60.95"/>
  <polygon class="cls-1" points="185.96 93.25 161.39 129.11 131.65 128.74 164.02 81.96 185.96 93.25"/>
  <polygon class="cls-1" points="243.4 128.74 214.22 128.74 187.78 90.59 172.91 69.13 132.02 10.15 161.57 10.15 187.61 47.88 213.85 9.97 243.03 9.97 202.38 69.29 243.4 128.74"/>
  <path class="cls-2" d="M328.64,10.15v118.58h-23.27c0-.21,.03-3.69,.06-9.34,.04-6.95,.12-17.19,.2-28.65,.02-2.61,.04-5.29,.06-8.01-1.84-11.1-11.58-19.58-23.32-19.58-13.06,0-23.64,10.49-23.64,23.41,0,12.2,9.43,22.22,21.47,23.31,.71,.07,1.44,.1,2.18,.1,3.39,0,6.62-.71,9.53-1.98l8.47,15.19-.05,.17c-2,1.34-4.12,2.49-6.34,3.45-4.91,2.13-10.29,3.31-15.94,3.31-23.13,0-41.88-19.73-41.88-44.05s18.75-44.05,41.88-44.05c10.7,0,20.46,4.22,27.86,11.17,.16-23.35,.3-43.04,.3-43.04h22.44Z"/>
  <path class="cls-2" d="M337.51,44.37v50.15s-1.52,35.61,36.3,35.61c0,0,16.21-.14,22.86-8.17l-8.45-14.68s-22.3,9.97-26.74-7.9V44.37h-23.97Z"/>
  <polygon class="cls-2" points="400.96 44.33 423.86 44.33 423.86 129.29 400.77 129.29 400.96 44.33"/>
  <polygon class="cls-1" points="30.97 155.43 24.44 155.43 24.44 152.33 41.17 152.33 41.17 155.43 34.63 155.43 34.63 172.04 30.97 172.04 30.97 155.43"/>
  <polygon class="cls-1" points="68.05 152.33 68.05 172.04 64.39 172.04 64.39 163.59 54.19 163.59 54.19 172.04 50.54 172.04 50.54 152.33 54.19 152.33 54.19 160.47 64.39 160.47 64.39 152.33 68.05 152.33"/>
  <polygon class="cls-1" points="94.74 168.97 94.74 172.04 79.95 172.04 79.95 152.33 94.34 152.33 94.34 155.4 83.61 155.4 83.61 160.52 93.13 160.52 93.13 163.54 83.61 163.54 83.61 168.97 94.74 168.97"/>
  <polygon class="cls-1" points="138.2 155.43 131.67 155.43 131.67 152.33 148.4 152.33 148.4 155.43 141.86 155.43 141.86 172.04 138.2 172.04 138.2 155.43"/>
  <polygon class="cls-1" points="172.55 168.97 172.55 172.04 157.77 172.04 157.77 152.33 172.16 152.33 172.16 155.4 161.43 155.4 161.43 160.52 170.95 160.52 170.95 163.54 161.43 163.54 161.43 168.97 172.55 168.97"/>
  <path class="cls-1" d="M181.75,162.19c0-5.89,4.51-10.14,10.56-10.14,3.21,0,5.97,1.15,7.8,3.3l-2.37,2.22c-1.43-1.55-3.21-2.31-5.27-2.31-4.08,0-7.04,2.87-7.04,6.93s2.96,6.93,7.04,6.93c2.06,0,3.83-.76,5.27-2.34l2.37,2.26c-1.83,2.14-4.59,3.29-7.83,3.29-6.03,0-10.53-4.25-10.53-10.14"/>
  <polygon class="cls-1" points="227.76 152.33 227.76 172.04 224.1 172.04 224.1 163.59 213.9 163.59 213.9 172.04 210.24 172.04 210.24 152.33 213.9 152.33 213.9 160.47 224.1 160.47 224.1 152.33 227.76 152.33"/>
  <path class="cls-1" d="M266.77,169.96l1.26-2.84c1.58,1.26,4.09,2.17,6.51,2.17,3.07,0,4.36-1.1,4.36-2.56,0-4.25-11.71-1.47-11.71-8.79,0-3.18,2.53-5.89,7.94-5.89,2.36,0,4.85,.62,6.56,1.75l-1.15,2.84c-1.77-1.04-3.72-1.55-5.44-1.55-3.04,0-4.28,1.18-4.28,2.67,0,4.2,11.69,1.47,11.69,8.7,0,3.16-2.56,5.86-7.97,5.86-3.07,0-6.14-.96-7.77-2.37"/>
  <path class="cls-1" d="M291.34,162.19c0-5.89,4.51-10.14,10.56-10.14,3.21,0,5.97,1.15,7.8,3.3l-2.37,2.22c-1.44-1.55-3.21-2.31-5.27-2.31-4.08,0-7.04,2.87-7.04,6.93s2.96,6.93,7.04,6.93c2.06,0,3.83-.76,5.27-2.34l2.37,2.26c-1.83,2.14-4.59,3.29-7.83,3.29-6.02,0-10.53-4.25-10.53-10.14"/>
  <polygon class="cls-1" points="337.35 152.33 337.35 172.04 333.69 172.04 333.69 163.59 323.5 163.59 323.5 172.04 319.84 172.04 319.84 152.33 323.5 152.33 323.5 160.47 333.69 160.47 333.69 152.33 337.35 152.33"/>
  <path class="cls-1" d="M347.85,162.19c0-5.83,4.51-10.14,10.62-10.14s10.62,4.28,10.62,10.14-4.51,10.14-10.62,10.14-10.62-4.31-10.62-10.14m17.54,0c0-4.03-2.96-6.93-6.93-6.93s-6.93,2.9-6.93,6.93,2.95,6.93,6.93,6.93,6.93-2.9,6.93-6.93"/>
  <path class="cls-1" d="M378.17,162.19c0-5.83,4.51-10.14,10.62-10.14s10.61,4.28,10.61,10.14-4.51,10.14-10.61,10.14-10.62-4.31-10.62-10.14m17.54,0c0-4.03-2.95-6.93-6.92-6.93s-6.93,2.9-6.93,6.93,2.95,6.93,6.93,6.93,6.92-2.9,6.92-6.93"/>
  <polygon class="cls-1" points="409.9 152.33 413.56 152.33 413.56 168.94 423.86 168.94 423.86 172.04 409.9 172.04 409.9 152.33"/>
</svg>